<svg xmlns="http://www.w3.org/2000/svg" width="1280" height="480" viewBox="0 0 1280 480" role="img" aria-label="PLATE VISION project overview"><defs><linearGradient id="bg" x2="1" y2="1"><stop stop-color="#111b30"/><stop offset="1" stop-color="#090f1d"/></linearGradient><radialGradient id="glow"><stop stop-color="#77dbef" stop-opacity=".14"/><stop offset="1" stop-color="#77dbef" stop-opacity="0"/></radialGradient></defs><rect width="1280" height="480" rx="24" fill="url(#bg)"/><circle cx="1040" cy="235" r="350" fill="url(#glow)"/><path d="M64 51 H1216" stroke="#2b3547"/><rect x="64" y="50" width="75" height="3" fill="#77dbef"/><text x="64" y="100" font-family="Arial,Helvetica,sans-serif" font-size="14" font-weight="700" stroke="none" fill="#77dbef" text-anchor="start">COMPUTER VISION / DESKTOP OCR</text><text x="64" y="204" font-family="Arial,Helvetica,sans-serif" font-size="67" font-weight="700" stroke="none" fill="#f4f7fb" text-anchor="start">PLATE VISION</text><text x="67" y="256" font-family="Arial,Helvetica,sans-serif" font-size="23" font-weight="400" stroke="none" fill="#bac6d6" text-anchor="start">Locate the plate. Read the characters.</text><rect x="66" y="333" width="84" height="36" rx="18" fill="#77dbef" fill-opacity=".09" stroke="#77dbef" stroke-opacity=".25"/><text x="108.0" y="357" font-family="Arial,Helvetica,sans-serif" font-size="15" font-weight="500" stroke="none" fill="#77dbef" text-anchor="middle">Python</text><rect x="160" y="333" width="84" height="36" rx="18" fill="#77dbef" fill-opacity=".09" stroke="#77dbef" stroke-opacity=".25"/><text x="202.0" y="357" font-family="Arial,Helvetica,sans-serif" font-size="15" font-weight="500" stroke="none" fill="#77dbef" text-anchor="middle">OpenCV</text><rect x="254" y="333" width="111" height="36" rx="18" fill="#77dbef" fill-opacity=".09" stroke="#77dbef" stroke-opacity=".25"/><text x="309.5" y="357" font-family="Arial,Helvetica,sans-serif" font-size="15" font-weight="500" stroke="none" fill="#77dbef" text-anchor="middle">Tesseract</text><rect x="375" y="333" width="93" height="36" rx="18" fill="#77dbef" fill-opacity=".09" stroke="#77dbef" stroke-opacity=".25"/><text x="421.5" y="357" font-family="Arial,Helvetica,sans-serif" font-size="15" font-weight="500" stroke="none" fill="#77dbef" text-anchor="middle">Tkinter</text><text x="66" y="427" font-family="Arial,Helvetica,sans-serif" font-size="12" font-weight="600" stroke="none" fill="#899ab3" text-anchor="start">MANVITH REDDY DALLI</text><g fill="none" stroke="#77dbef" stroke-width="3" stroke-linecap="round" stroke-linejoin="round"><path d="M898 178 V140 H942 M1110 140 H1154 V178 M898 287 V325 H942 M1110 325 H1154 V287"/><rect x="927" y="195" width="200" height="83" rx="12"/><text x="1027" y="249" font-family="Arial,Helvetica,sans-serif" font-size="31" font-weight="700" stroke="none" fill="#77dbef" text-anchor="middle">ABC 123</text><path opacity=".6" d="M877 232 H1175"/></g></svg>