<svg xmlns="http://www.w3.org/2000/svg" width="1280" height="325" viewBox="0 0 1280 325" role="img" aria-label="PLATE VISION workflow"><rect width="1280" height="325" rx="20" fill="#0e1728"/><text x="45" y="54" font-family="Arial,Helvetica,sans-serif" font-size="15" font-weight="700" stroke="none" fill="#77dbef" text-anchor="start">HOW THE PIECES CONNECT</text><rect x="45" y="101" width="269" height="162" rx="16" fill="#152238" stroke="#2a3b52"/><circle cx="79" cy="138" r="17" fill="#77dbef" fill-opacity=".16"/><text x="79" y="143" font-family="Arial,Helvetica,sans-serif" font-size="13" font-weight="700" stroke="none" fill="#77dbef" text-anchor="middle">1</text><text x="69" y="187" font-family="Arial,Helvetica,sans-serif" font-size="25" font-weight="700" stroke="none" fill="#eff4fa" text-anchor="start">Upload</text><text x="69" y="224" font-family="Arial,Helvetica,sans-serif" font-size="16" font-weight="400" stroke="none" fill="#afbed1" text-anchor="start">Vehicle image</text><path d="M324 180 H341 M334 174 L341 180 L334 186" fill="none" stroke="#77dbef" stroke-width="2"/><rect x="352" y="101" width="269" height="162" rx="16" fill="#152238" stroke="#2a3b52"/><circle cx="386" cy="138" r="17" fill="#77dbef" fill-opacity=".16"/><text x="386" y="143" font-family="Arial,Helvetica,sans-serif" font-size="13" font-weight="700" stroke="none" fill="#77dbef" text-anchor="middle">2</text><text x="376" y="187" font-family="Arial,Helvetica,sans-serif" font-size="25" font-weight="700" stroke="none" fill="#eff4fa" text-anchor="start">Detect</text><text x="376" y="224" font-family="Arial,Helvetica,sans-serif" font-size="16" font-weight="400" stroke="none" fill="#afbed1" text-anchor="start">Edges + contours</text><path d="M631 180 H648 M641 174 L648 180 L641 186" fill="none" stroke="#77dbef" stroke-width="2"/><rect x="659" y="101" width="269" height="162" rx="16" fill="#152238" stroke="#2a3b52"/><circle cx="693" cy="138" r="17" fill="#77dbef" fill-opacity=".16"/><text x="693" y="143" font-family="Arial,Helvetica,sans-serif" font-size="13" font-weight="700" stroke="none" fill="#77dbef" text-anchor="middle">3</text><text x="683" y="187" font-family="Arial,Helvetica,sans-serif" font-size="25" font-weight="700" stroke="none" fill="#eff4fa" text-anchor="start">Recognize</text><text x="683" y="224" font-family="Arial,Helvetica,sans-serif" font-size="16" font-weight="400" stroke="none" fill="#afbed1" text-anchor="start">Tesseract OCR</text><path d="M938 180 H955 M948 174 L955 180 L948 186" fill="none" stroke="#77dbef" stroke-width="2"/><rect x="966" y="101" width="269" height="162" rx="16" fill="#152238" stroke="#2a3b52"/><circle cx="1000" cy="138" r="17" fill="#77dbef" fill-opacity=".16"/><text x="1000" y="143" font-family="Arial,Helvetica,sans-serif" font-size="13" font-weight="700" stroke="none" fill="#77dbef" text-anchor="middle">4</text><text x="990" y="187" font-family="Arial,Helvetica,sans-serif" font-size="25" font-weight="700" stroke="none" fill="#eff4fa" text-anchor="start">Review</text><text x="990" y="224" font-family="Arial,Helvetica,sans-serif" font-size="16" font-weight="400" stroke="none" fill="#afbed1" text-anchor="start">Desktop text output</text></svg>